<svg width="203" height="249" viewBox="0 0 203 249" fill="none" xmlns="http://www.w3.org/2000/svg">
<path d="M100.412 236.924C93.6443 237.582 86.5479 238.497 81.0609 242.557C80.2562 243.142 79.4881 243.874 79.3418 244.862C79.0857 247.02 82.0119 247.898 84.2067 247.971C123.603 249.215 162.999 249.324 202.396 248.337C202.908 245.63 199.872 243.728 197.311 242.813C166.914 231.73 132.016 233.851 100.412 236.924Z" fill="url(#paint0_linear)"/>
<path d="M100.412 236.924C93.6443 237.582 86.5479 238.497 81.0609 242.557C80.2562 243.142 79.4881 243.874 79.3418 244.862C79.0857 247.02 82.0119 247.898 84.2067 247.971C123.603 249.215 162.999 249.324 202.396 248.337C202.908 245.63 199.872 243.728 197.311 242.813C166.914 231.73 132.016 233.851 100.412 236.924Z" fill="url(#paint1_linear)"/>
<path d="M78.61 183.81C76.2324 188.749 77.2931 196.54 78.354 203.307C79.1587 208.392 80.5488 213.806 84.5726 216.988C86.8405 218.781 89.657 219.658 92.4737 220.353C105.35 223.463 119.067 223.024 131.687 219.11C134.211 218.305 136.772 217.354 138.857 215.744C142.186 213.147 143.978 209.05 145.295 205.026C147.087 199.54 151.513 187.175 146.026 184.139C141.198 181.469 125.688 184.761 119.908 184.725C115.519 184.725 111.129 184.651 106.813 183.627C101.875 182.493 97.0462 180.116 92.0714 179.201C84.3896 177.775 80.4756 179.933 78.61 183.81Z" fill="#2F3F47"/>
<path d="M109.995 227.487C110.032 227.048 110.068 226.609 110.105 226.133C106.301 223.536 99.6068 224.377 95.583 225.694C91.2666 227.084 91.2664 229.791 91.303 234.254C91.3396 236.778 91.5592 239.668 93.4979 241.277C94.9977 242.557 97.1192 242.704 99.0579 242.85C100.814 242.96 102.57 243.07 104.325 243.143C105.533 243.216 106.886 243.252 107.837 242.448C108.788 241.643 108.935 240.253 109.044 239.046C109.374 235.205 109.666 231.364 109.995 227.487Z" fill="#2F3F47"/>
<path d="M113.507 227.487C113.47 227.048 113.434 226.609 113.397 226.133C117.202 223.536 123.895 224.377 127.919 225.694C132.236 227.084 132.236 229.791 132.199 234.254C132.162 236.778 131.943 239.668 130.004 241.277C128.505 242.557 126.383 242.704 124.444 242.85C122.688 242.96 120.932 243.07 119.177 243.143C117.97 243.216 116.616 243.252 115.665 242.448C114.714 241.643 114.568 240.253 114.458 239.046C114.129 235.205 113.836 231.364 113.507 227.487Z" fill="#2F3F47"/>
<path d="M21.3625 44.039C21.4722 44.9535 21.582 45.9046 21.2528 46.7825C20.9968 47.4775 20.4845 48.0262 19.9724 48.5749C17.8142 50.8062 15.4732 52.8913 12.9492 54.7203C10.0959 54.3179 7.31583 53.5499 4.68209 52.3793C4.20656 52.1598 3.69449 51.9038 3.36527 51.4648C3.10922 51.1356 3.03611 50.6966 2.96295 50.2942C1.9753 45.612 0.987653 40.8931 0 36.2109C1.46319 35.2233 3.07262 34.4186 4.71871 33.7967C5.37714 36.6134 6.0355 39.4666 6.69393 42.2833C7.31579 44.9902 8.34022 48.136 11.0105 48.9042C12.6201 47.5142 14.2294 46.0875 15.8389 44.6974C16.1315 44.4414 16.3876 44.1854 16.5705 43.8562C16.7534 43.4538 16.6803 42.9783 16.6071 42.5027C16.2047 39.7593 15.5829 37.0156 14.7415 34.3453C16.095 34.0892 17.412 33.8333 18.7654 33.5773C20.4481 36.7597 20.9235 40.4542 21.3625 44.039Z" fill="#2F3F47"/>
<path d="M8.85194 54.7936C8.81536 54.9399 8.85197 55.0862 8.88855 55.2325C9.29093 56.9152 9.69337 58.5979 10.0957 60.2805C12.7295 59.6587 15.3266 58.8174 17.8506 57.8298C17.5946 56.3666 17.1921 54.9398 16.6434 53.5864C16.5337 53.2937 16.3507 52.9645 16.058 52.8547C15.8751 52.7816 15.6558 52.8182 15.4729 52.8547C13.3878 53.2205 11.3394 53.7328 9.36411 54.3912C9.14463 54.501 8.9251 54.6107 8.85194 54.7936Z" fill="#2F3F47"/>
<path d="M9.40115 61.8899C9.14509 64.9992 13.4248 70.7422 14.7417 73.3028C16.4975 76.7779 18.2534 80.2894 20.7408 83.2524C23.2282 86.2519 26.5204 88.7029 30.3247 89.5076C32.4829 89.9466 34.7142 89.8369 36.909 89.5442C43.4933 88.7029 49.8948 86.3252 55.4549 82.6672C55.8939 82.3746 56.3694 82.0454 56.5523 81.5332C56.7352 81.0211 56.5523 80.4358 56.3694 79.8871C55.6744 77.8021 54.9795 75.4977 53.9186 73.5955C52.0531 70.2302 53.2236 70.8154 50.2241 71.0715C47.9195 71.2544 44.6273 73.6687 42.1765 74.2905C39.3232 74.9855 36.3603 75.3512 33.4705 75.717C31.6415 75.9364 29.5931 76.1194 28.0567 75.0952C27.2154 74.5099 26.6302 73.6685 26.0815 72.7906C22.7893 67.6695 19.7898 62.3655 17.156 56.9151C16.7171 55.9641 9.98635 59.9146 9.54739 61.4144C9.43765 61.5607 9.40115 61.707 9.40115 61.8899Z" fill="#516770"/>
<g opacity="0.15">
<path opacity="0.15" d="M36.8728 87.5326C35.4828 84.1673 34.861 80.8019 34.6781 77.2171C34.6415 76.5221 33.6905 76.4123 33.5808 77.1439C32.9589 80.9847 33.5807 84.8987 34.9342 88.5201C35.3731 89.837 37.3849 88.8495 36.8728 87.5326Z" fill="#272525"/>
<path opacity="0.15" d="M30.5441 87.7887C29.5931 84.3502 29.9589 81.6066 31.0929 78.2779C31.2392 77.8389 30.5808 77.5098 30.3613 77.9122C29.337 79.5948 28.2031 80.9483 27.8739 82.9602C27.5447 84.8623 27.6178 86.7278 28.3128 88.5568C28.7518 89.8371 30.9099 89.1056 30.5441 87.7887Z" fill="#272525"/>
</g>
<path d="M64.7828 58.5246C59.8079 60.9388 58.6008 67.4135 58.1619 72.937C55.3086 106.883 56.4061 141.195 61.3809 174.885C62.0028 178.982 62.8808 183.444 66.0998 186.042C68.1849 187.724 70.9283 188.309 73.562 188.785C100.375 193.687 128.066 193.723 154.879 188.895C155.757 188.748 156.708 188.565 157.439 187.98C158.427 187.212 158.793 185.932 159.086 184.725C168.706 147.084 166.438 107.578 163.987 68.8401C163.914 67.4867 163.804 66.0966 163.182 64.926C162.414 63.4994 160.988 62.5482 159.524 61.8166C151.184 57.4271 141.417 57.0614 132.016 56.9151C111.824 56.5493 91.6324 56.7322 71.4403 57.3906C69.1724 57.4272 66.7947 57.5369 64.7828 58.5246Z" fill="#EAF1F2"/>
<path d="M78.7194 47.7702C100.777 52.2695 123.31 51.9035 145.295 46.7092C149.94 45.6118 154.952 44.0024 158.098 38.7715C163.511 29.7363 160 14.4094 153.196 7.71528C146.392 1.02118 137.723 0.545538 129.565 0.28948C116.47 -0.112897 103.301 -0.515203 90.3517 2.1917C82.8529 3.76463 74.9884 6.80067 69.977 15.1409C64.9656 23.481 64.6363 38.552 71.0377 44.4779C73.2691 46.5629 76.0491 47.2215 78.7194 47.7702Z" fill="#EAF1F2"/>
<path d="M84.3162 229.279C102.57 230.705 121.189 230.596 139.405 228.95C143.246 228.584 147.38 228.072 149.977 226.425C154.44 223.536 151.55 218.671 145.916 216.549C140.283 214.427 133.114 214.281 126.346 214.171C115.519 214.025 104.618 213.915 93.9001 214.793C87.7181 215.305 81.1704 216.256 77.0369 218.927C72.9034 221.597 72.6107 226.389 77.9148 228.254C79.8169 228.876 82.0849 229.096 84.3162 229.279Z" fill="#EAF1F2"/>
<path d="M91.1936 36.8328C105.752 38.7715 120.567 38.6252 135.089 36.3572C138.162 35.8817 141.454 35.1866 143.503 32.9187C147.087 29.0047 144.746 22.3836 140.284 19.4938C135.821 16.604 130.078 16.3845 124.701 16.2747C116.068 16.0918 107.398 15.9091 98.8386 17.1162C93.9004 17.8112 88.7061 19.0914 85.4139 22.7128C82.1217 26.3342 81.9023 32.8455 86.1089 35.3695C87.6087 36.3206 89.4378 36.6133 91.1936 36.8328Z" fill="#2F3F47"/>
<path d="M94.2296 58.8907C92.4006 58.8907 90.2423 59.1102 89.3644 60.7197C88.9254 61.5244 88.9255 62.4754 88.9621 63.3899C89.5839 85.5573 90.2422 107.761 90.8641 129.929C104.874 133.66 119.799 137.391 133.589 132.928C135.455 108.603 135.894 84.2039 134.87 59.8052C129.163 58.5615 123.237 58.5981 117.384 58.6712C109.703 58.7444 101.984 58.8175 94.2296 58.8907Z" fill="#E2ECED"/>
<path d="M136.113 59.805C136.077 59.2929 135.747 58.7442 135.235 58.6344C128.944 57.3541 122.579 57.3907 116.214 57.4638C108.898 57.537 101.582 57.6101 94.266 57.6467C89.4009 57.793 87.7184 59.8416 87.8281 64.6336C88.0476 71.8763 88.2304 79.1192 88.4499 86.3986C88.8523 100.884 89.2911 115.406 89.6935 129.892C89.6935 130.44 90.0595 130.916 90.5716 131.062C104.655 134.83 119.543 138.488 133.919 134.062C134.467 133.879 134.76 133.44 134.796 132.891C136.662 108.602 137.101 84.2037 136.113 59.805ZM132.492 132.013C119.067 135.854 105.24 132.489 92.1079 128.977C91.7787 117.345 91.4494 105.713 91.1202 94.0802C90.9373 88.1177 90.7909 82.1553 90.608 76.1563C90.5348 73.1567 90.4251 70.1937 90.3519 67.1942C90.3153 65.9139 90.2789 64.6336 90.2423 63.3534C90.1691 60.8294 92.2175 60.1342 94.3026 60.0611C100.814 59.9879 107.325 59.9514 113.836 59.8782C120.494 59.8051 127.224 59.5856 133.809 60.7927C134.65 84.5696 134.248 108.31 132.492 132.013Z" fill="#2F3F47"/>
<path opacity="0.2" d="M115.482 126.343C115.811 125.831 115.994 125.282 116.177 124.734C116.397 123.966 116.579 123.161 116.433 122.356C116.323 121.734 115.994 121.185 115.665 120.6C115.555 120.417 115.445 120.198 115.336 120.015C115.153 119.722 115.007 119.393 114.751 119.137C114.129 118.442 113.141 118.222 112.227 118.04C111.568 117.93 110.91 117.82 110.215 117.893C108.715 118.076 107.435 119.21 106.922 120.637C106.41 122.027 106.593 123.636 107.215 124.99C108.02 126.709 109.666 128.136 111.568 128.282C113.141 128.392 114.677 127.624 115.482 126.343Z" fill="#272525"/>
<path d="M114.421 126.124C114.751 125.612 114.933 125.063 115.116 124.514C115.336 123.746 115.519 122.941 115.372 122.137C115.263 121.515 114.933 120.966 114.641 120.381C114.531 120.198 114.421 119.979 114.312 119.796C114.129 119.503 113.982 119.174 113.726 118.918C113.104 118.223 112.117 118.003 111.202 117.82C110.544 117.711 109.885 117.601 109.19 117.674C107.691 117.857 106.41 118.991 105.898 120.418C105.386 121.844 105.569 123.417 106.191 124.771C106.996 126.49 108.642 127.916 110.544 128.063C112.08 128.209 113.617 127.404 114.421 126.124Z" fill="#83959E"/>
<path opacity="0.2" d="M111.458 123.746C111.751 123.344 111.788 122.868 111.788 122.393C111.788 122.247 111.788 122.064 111.751 121.917C111.678 121.698 111.495 121.515 111.276 121.369C110.654 120.966 109.776 120.93 109.117 121.332C108.495 121.735 108.13 122.612 108.386 123.307C108.788 123.746 109.264 124.112 109.849 124.259C110.434 124.368 111.093 124.222 111.458 123.746Z" fill="black"/>
<path opacity="0.2" d="M115.812 179.677C116.141 179.165 116.324 178.616 116.507 178.067C116.726 177.299 116.909 176.494 116.763 175.69C116.653 175.068 116.324 174.519 116.031 173.934C115.922 173.751 115.812 173.531 115.702 173.348C115.519 173.056 115.373 172.727 115.117 172.471C114.495 171.776 113.507 171.556 112.593 171.373C111.934 171.263 111.276 171.154 110.581 171.227C109.081 171.41 107.801 172.544 107.289 173.97C106.777 175.36 106.959 176.97 107.581 178.323C108.386 180.043 110.032 181.469 111.934 181.615C113.434 181.762 115.007 180.994 115.812 179.677Z" fill="#272525"/>
<path d="M114.751 179.494C115.08 178.982 115.263 178.433 115.446 177.884C115.665 177.116 115.848 176.311 115.702 175.507C115.592 174.885 115.263 174.336 114.934 173.751C114.824 173.568 114.714 173.348 114.604 173.165C114.422 172.873 114.275 172.544 114.019 172.288C113.397 171.593 112.41 171.373 111.495 171.19C110.837 171.081 110.178 170.971 109.483 171.044C107.984 171.227 106.703 172.361 106.191 173.787C105.679 175.177 105.862 176.787 106.484 178.14C107.289 179.86 108.935 181.286 110.837 181.433C112.373 181.542 113.946 180.774 114.751 179.494Z" fill="#83959E"/>
<path opacity="0.2" d="M111.788 177.116C112.081 176.714 112.081 176.238 112.117 175.763C112.117 175.617 112.117 175.434 112.081 175.287C112.008 175.068 111.825 174.885 111.605 174.739C110.983 174.336 110.105 174.3 109.447 174.702C108.825 175.104 108.459 175.982 108.715 176.677C109.118 177.116 109.593 177.482 110.179 177.629C110.727 177.738 111.422 177.592 111.788 177.116Z" fill="black"/>
<path d="M165.414 130.075C165.889 129.27 166.365 128.465 167.133 127.953C167.755 127.551 168.487 127.441 169.218 127.295C172.291 126.819 175.4 126.6 178.509 126.636C180.558 128.648 182.314 130.989 183.704 133.513C183.96 133.989 184.216 134.501 184.216 135.013C184.216 135.415 184.033 135.818 183.85 136.22C181.802 140.573 179.753 144.89 177.705 149.243C175.949 149.169 174.193 148.84 172.474 148.292C173.644 145.658 174.851 142.988 176.022 140.354C177.156 137.83 178.253 134.72 176.607 132.489C174.486 132.635 172.364 132.782 170.206 132.928C169.84 132.965 169.438 132.965 169.145 133.147C168.743 133.367 168.523 133.769 168.304 134.172C166.95 136.623 165.816 139.183 164.865 141.78C163.622 141.195 162.414 140.573 161.171 139.988C161.719 136.44 163.585 133.221 165.414 130.075Z" fill="#2F3F47"/>
<path d="M181.911 129.087C182.021 129.014 182.094 128.868 182.167 128.721C182.862 127.148 183.557 125.539 184.252 123.966C181.765 122.868 179.204 121.954 176.57 121.222C175.875 122.539 175.363 123.893 174.961 125.319C174.888 125.612 174.815 125.978 174.997 126.234C175.107 126.417 175.29 126.49 175.473 126.6C177.339 127.587 179.277 128.392 181.289 129.05C181.472 129.124 181.728 129.197 181.911 129.087Z" fill="#2F3F47"/>
<path d="M185.752 123.088C187.801 120.783 187.874 113.614 188.386 110.797C189.081 106.993 189.812 103.115 189.63 99.238C189.447 95.3605 188.349 91.4099 185.789 88.4835C184.326 86.8374 182.497 85.557 180.558 84.4962C174.778 81.204 168.267 79.2287 161.646 78.7532C161.134 78.7166 160.549 78.7166 160.11 78.9726C159.634 79.2653 159.415 79.8506 159.268 80.3993C158.573 82.4843 157.732 84.7158 157.403 86.874C156.854 90.6783 156.269 89.471 158.829 91.1171C160.768 92.3608 164.865 92.434 167.206 93.4217C169.913 94.5922 172.474 96.092 174.998 97.5552C176.607 98.5063 178.327 99.567 178.948 101.323C179.278 102.274 179.204 103.335 179.131 104.359C178.656 110.431 177.851 116.467 176.644 122.429C176.424 123.454 184.179 124.368 185.423 123.454C185.496 123.344 185.606 123.234 185.752 123.088Z" fill="#516770"/>
<g opacity="0.15">
<path opacity="0.15" d="M179.351 86.069C178.436 89.5806 176.9 92.6533 174.888 95.6528C174.486 96.2381 175.217 96.8966 175.729 96.3845C178.546 93.6776 180.412 90.2025 181.509 86.5079C181.911 85.1179 179.717 84.6789 179.351 86.069Z" fill="#272525"/>
<path opacity="0.15" d="M184.545 89.654C183.228 92.9827 181.289 94.9582 178.363 96.9335C177.961 97.1896 178.29 97.8478 178.729 97.6649C180.594 96.9334 182.277 96.5675 183.777 95.1409C185.167 93.8241 186.264 92.2512 186.813 90.4222C187.215 89.1419 185.02 88.4103 184.545 89.654Z" fill="#272525"/>
</g>
<defs>
<linearGradient id="paint0_linear" x1="79.3355" y1="241.722" x2="202.458" y2="241.722" gradientUnits="userSpaceOnUse">
<stop stop-color="#4D4D4D"/>
<stop offset="1"/>
</linearGradient>
<linearGradient id="paint1_linear" x1="79.3355" y1="241.722" x2="202.458" y2="241.722" gradientUnits="userSpaceOnUse">
<stop/>
<stop offset="1"/>
</linearGradient>
</defs>
</svg>
