<svg width="221" height="196" viewBox="0 0 221 196" fill="none" xmlns="http://www.w3.org/2000/svg">
<path d="M66.9435 184.196C65.0809 184.561 62.8531 185.365 62.634 187.264C62.3783 189.382 64.9714 190.624 67.0531 191.062C74.9052 192.779 83.0131 192.998 91.0843 193.217C133.741 194.24 176.398 194.422 219.055 193.728C218.434 188.506 212.226 186.241 207.076 185.255C184.944 181.019 162.045 183.429 140.315 178.937C117.416 174.153 89.5502 179.558 66.9435 184.196Z" fill="url(#paint0_linear)"/>
<path d="M66.9435 184.196C65.0809 184.561 62.8531 185.365 62.634 187.264C62.3783 189.382 64.9714 190.624 67.0531 191.062C74.9052 192.779 83.0131 192.998 91.0843 193.217C133.741 194.24 176.398 194.422 219.055 193.728C218.434 188.506 212.226 186.241 207.076 185.255C184.944 181.019 162.045 183.429 140.315 178.937C117.416 174.153 89.5502 179.558 66.9435 184.196Z" fill="url(#paint1_linear)"/>
<path d="M183.118 149.793C183.593 149.647 184.104 149.793 184.579 149.939C186.661 150.633 188.706 151.546 190.532 152.751C191.445 153.336 192.358 153.993 192.796 154.979C193.198 155.893 193.161 156.915 193.088 157.865C192.431 169.624 191.81 181.421 191.153 193.181C191.116 193.948 191.007 194.788 190.422 195.262C189.692 195.81 188.669 195.445 187.866 195.08C180.014 191.647 172.198 188.177 164.346 184.744C160.584 183.101 156.713 181.348 153.937 178.316C156.056 173.642 160.511 170.537 164.602 167.397C170.957 162.503 176.8 156.878 181.949 150.743C182.242 150.378 182.607 149.939 183.118 149.793Z" fill="#DDC199"/>
<path d="M220.114 89.2043C218.179 88.7661 216.206 88.3277 214.271 87.8894C202.876 108.816 192.796 130.474 184.104 152.679C186.113 153.957 188.779 155.271 190.714 153.884C191.518 153.299 191.993 152.35 192.431 151.437C202.292 130.985 211.532 110.241 220.114 89.2043Z" fill="#BDB39B"/>
<g opacity="0.26">
<path opacity="0.26" d="M184.213 191.026C184.177 191.427 184.798 191.573 184.871 191.172C186.441 179.302 188.669 167.652 191.554 156.038C191.737 155.308 190.605 155.088 190.422 155.819C187.427 167.323 185.346 179.156 184.213 191.026Z" fill="#272525"/>
<path opacity="0.26" d="M171.833 185.803C176.653 175.65 181.766 165.643 187.172 155.783C187.5 155.198 186.551 154.724 186.222 155.308C180.598 165.242 175.521 175.468 170.883 185.876C170.956 185.949 170.992 186.022 171.029 186.095C171.285 185.913 171.54 185.84 171.833 185.803Z" fill="#272525"/>
<path opacity="0.26" d="M163.981 179.12C172.052 171.523 179.247 163.087 185.528 153.957C185.93 153.336 184.907 152.824 184.506 153.445C178.333 162.539 171.248 170.939 163.323 178.535C162.922 178.937 163.579 179.522 163.981 179.12Z" fill="#272525"/>
</g>
<path d="M107.994 160.202C108.03 159.654 108.103 159.07 108.14 158.522C103.319 155.235 94.8461 156.294 89.7331 157.974C84.2549 159.763 84.2548 163.124 84.3278 168.821C84.3643 172.035 84.6566 175.65 87.14 177.732C89.0391 179.339 91.7052 179.558 94.1886 179.704C96.4164 179.85 98.6078 179.96 100.836 180.106C102.369 180.179 104.086 180.215 105.291 179.229C106.496 178.207 106.679 176.49 106.825 174.92C107.227 169.989 107.629 165.096 107.994 160.202Z" fill="#2F3F47"/>
<path d="M113.874 160.202C113.837 159.654 113.764 159.07 113.727 158.522C118.548 155.235 127.021 156.294 132.134 157.974C137.612 159.763 137.612 163.124 137.539 168.821C137.503 172.035 137.211 175.65 134.727 177.732C132.828 179.339 130.162 179.558 127.678 179.704C125.451 179.85 123.259 179.96 121.032 180.106C119.498 180.179 117.781 180.215 116.576 179.229C115.371 178.207 115.188 176.49 115.042 174.92C114.677 169.989 114.275 165.096 113.874 160.202Z" fill="#2F3F47"/>
<path d="M72.7508 148.003C71.5456 148.259 70.3768 148.624 69.2446 149.099C68.4047 149.428 67.5647 149.866 66.9803 150.523C66.1769 151.473 65.9577 152.788 65.8116 154.066C65.629 155.746 65.556 157.426 65.5925 159.106C65.5925 160.53 65.7022 161.991 66.4326 163.196C67.4552 164.876 69.4638 165.643 71.3629 166.118C74.9786 167.031 78.7402 167.25 82.4654 167.433C104.999 168.528 127.606 167.798 150.03 165.278C150.943 165.168 151.966 165.022 152.587 164.329C152.952 163.927 153.134 163.379 153.317 162.868C154.486 159.142 155.253 154.066 152.733 150.596C150.578 147.638 146.597 149.318 143.602 149.281C140.535 149.245 137.43 148.989 134.362 148.88C128.373 148.624 122.383 148.369 116.394 148.186C107.957 147.894 99.4845 147.638 91.048 147.419C85.3507 147.31 78.6307 146.689 72.7508 148.003Z" fill="#516770"/>
<path d="M121.178 67.8391C136.48 67.9121 151.746 68.2408 167.049 68.5695C166.684 60.4253 166.099 52.2809 164.346 44.3193C161.315 30.3681 154.376 16.7457 142.653 8.60145C124.684 -3.88887 96.1607 -2.24551 76.8043 10.0987C68.6601 15.2848 62.1229 22.4065 58.6899 31.1351C54.7456 41.1054 53.6863 51.9889 53.0654 62.6896C52.9924 64.114 52.9194 65.5017 52.8463 66.926C75.5626 66.0495 98.4251 67.766 121.178 67.8391Z" fill="#EAF1F2"/>
<path d="M119.936 71.9291C97.512 71.8926 75.0148 70.2857 52.5907 71.0892C51.495 95.4124 52.5177 119.845 55.6586 144.023C56.0968 147.346 56.6446 150.815 58.8359 153.445C62.2324 157.499 68.1123 155.709 72.6774 155.709C80.3835 155.709 88.3087 156.038 96.0878 156.221C110.769 156.549 125.341 156.586 139.95 154.942C146.889 154.175 160.913 156.294 164.237 150.048C166.976 144.972 165.844 134.673 166.245 129.012C166.72 122.292 167.085 115.609 167.305 108.889C167.706 96.8002 167.633 84.7116 167.158 72.5865C151.454 72.2943 135.677 71.9291 119.936 71.9291Z" fill="#E2ECED"/>
<path d="M172.892 111.3C173.184 111.044 173.221 110.606 173.258 110.241C174.025 100.124 174.682 90.0075 175.157 79.891C175.193 79.0145 175.193 77.992 174.499 77.4076C173.988 77.0059 173.331 76.9694 172.673 76.9694C170.409 76.9329 168.181 76.8965 165.917 76.8965C164.492 88.4007 163.908 99.978 164.2 111.555C166.72 111.555 169.204 111.592 171.724 111.592C172.125 111.592 172.564 111.592 172.892 111.3Z" fill="#2F3F47"/>
<path d="M184.542 134.6C184.834 133.76 185.163 132.884 185.821 132.263C186.332 131.788 187.026 131.496 187.683 131.277C190.532 130.254 193.453 129.487 196.412 128.976C198.713 130.546 200.794 132.409 202.584 134.564C202.913 134.966 203.241 135.404 203.314 135.915C203.387 136.317 203.278 136.719 203.168 137.12C202 141.613 200.867 146.105 199.699 150.597C197.982 150.816 196.266 150.852 194.586 150.633C195.243 147.894 195.901 145.155 196.521 142.452C197.142 139.859 197.617 136.682 195.645 134.856C193.636 135.367 191.664 135.915 189.655 136.426C189.327 136.5 188.961 136.609 188.669 136.828C188.341 137.12 188.194 137.559 188.048 137.96C187.208 140.517 186.587 143.146 186.149 145.812C184.871 145.447 183.593 145.118 182.315 144.753C182.205 141.284 183.374 137.887 184.542 134.6Z" fill="#2F3F47"/>
<path d="M200.064 130.656C200.173 130.546 200.21 130.4 200.246 130.291C200.612 128.647 200.977 127.004 201.378 125.397C198.822 124.812 196.193 124.411 193.6 124.192C193.198 125.543 192.942 126.967 192.833 128.392C192.796 128.684 192.796 129.049 193.015 129.268C193.161 129.414 193.344 129.451 193.526 129.524C195.462 130.108 197.471 130.546 199.516 130.802C199.662 130.765 199.881 130.802 200.064 130.656Z" fill="#516770"/>
<path d="M202.621 124.264C204.155 121.671 202.913 114.842 202.913 112.103C202.876 108.341 202.876 104.543 202 100.891C201.123 97.2384 199.334 93.6594 196.375 91.3585C194.695 90.0437 192.723 89.2039 190.678 88.51C184.579 86.4282 178.042 85.7344 171.651 86.5013C171.139 86.5744 170.591 86.6472 170.226 87.0125C169.824 87.3777 169.751 87.9621 169.678 88.51C169.386 90.5917 168.984 92.8924 169.094 95.0107C169.277 98.7358 168.51 97.7133 171.212 98.7725C173.294 99.5759 177.202 98.9186 179.576 99.4664C182.351 100.087 185.054 101.037 187.756 101.986C189.473 102.571 191.299 103.301 192.176 104.871C192.65 105.711 192.796 106.734 192.906 107.72C193.563 113.564 193.856 119.443 193.819 125.323C193.819 126.346 201.342 125.835 202.328 124.703C202.438 124.556 202.511 124.41 202.621 124.264Z" fill="#E2ECED"/>
<g opacity="0.15">
<path opacity="0.15" d="M189.838 90.1901C189.619 93.6962 188.706 96.8736 187.318 100.088C187.063 100.708 187.829 101.183 188.231 100.635C190.422 97.5676 191.555 93.9153 191.956 90.1901C192.103 88.8754 189.948 88.8388 189.838 90.1901Z" fill="#272525"/>
<path opacity="0.15" d="M195.426 92.7099C194.805 96.1064 193.271 98.3342 190.861 100.745C190.532 101.073 190.97 101.621 191.335 101.365C192.979 100.343 194.513 99.6855 195.682 98.0421C196.777 96.5082 197.508 94.8647 197.727 93.0021C197.873 91.7239 195.682 91.4316 195.426 92.7099Z" fill="#272525"/>
</g>
<path d="M49.0118 77.1885C48.7196 77.4441 48.6832 77.8825 48.6467 78.2478C47.8797 88.3642 47.2222 98.4806 46.7475 108.597C46.7109 109.474 46.7109 110.496 47.4048 111.08C47.9161 111.482 48.5735 111.519 49.2309 111.519C51.4952 111.555 53.7229 111.592 55.9873 111.592C57.4116 100.088 57.9961 88.5101 57.7039 76.9328C55.1839 76.9328 52.7005 76.8965 50.1805 76.8965C49.7788 76.8965 49.3039 76.8963 49.0118 77.1885Z" fill="#2F3F47"/>
<path d="M20.7076 64.7346C20.8171 65.6111 20.9266 66.5606 20.5979 67.364C20.3423 68.0214 19.8676 68.5694 19.3563 69.0807C17.2746 71.2354 15.0103 73.2441 12.5634 75.0337C9.78774 74.6684 7.08515 73.9015 4.56518 72.7694C4.0904 72.5502 3.57896 72.3311 3.28679 71.8929C3.06766 71.5642 2.95815 71.1622 2.88511 70.7605C1.93555 66.2318 0.949556 61.6667 0 57.1381C1.42433 56.1885 2.95823 55.385 4.56518 54.8007C5.18604 57.5398 5.84327 60.2789 6.46414 63.018C7.085 65.611 8.07113 68.6788 10.6276 69.4092C12.1981 68.0579 13.7321 66.7067 15.3025 65.3554C15.5581 65.1363 15.8503 64.8807 15.9964 64.552C16.179 64.1503 16.1058 63.6754 16.0327 63.2371C15.631 60.571 15.0467 57.9416 14.2432 55.3486C15.558 55.0929 16.8363 54.8372 18.151 54.5815C19.831 57.6859 20.2693 61.2651 20.7076 64.7346Z" fill="#2F3F47"/>
<path d="M8.58215 75.1428C8.54563 75.2889 8.58215 75.4352 8.58215 75.5447C8.98389 77.1882 9.38565 78.795 9.75086 80.4385C12.3074 79.8176 14.8273 79.0141 17.2743 78.0645C17.0551 76.6767 16.6534 75.2889 16.1055 73.9741C15.996 73.682 15.85 73.3898 15.5579 73.2802C15.3753 73.2072 15.1925 73.2437 14.9734 73.2802C12.9647 73.6089 10.9926 74.1203 9.05695 74.7777C8.87434 74.8508 8.65519 74.9602 8.58215 75.1428Z" fill="#516770"/>
<path d="M9.13005 82.009C8.8744 85.0038 13.0377 90.5551 14.2795 93.0386C15.9595 96.3985 17.6761 99.7951 20.0865 102.68C22.4969 105.565 25.6742 107.976 29.3628 108.706C31.4445 109.144 33.5993 109.035 35.7175 108.743C42.1088 107.903 48.281 105.638 53.6496 102.096C54.0879 101.804 54.5261 101.512 54.7087 101C54.8913 100.489 54.7088 99.9411 54.5627 99.3933C53.8688 97.3846 53.2478 95.1568 52.1887 93.2942C50.3626 90.0438 51.5314 90.628 48.6097 90.8471C46.3819 91.0298 43.1679 93.3673 40.794 93.9516C38.0184 94.6455 35.1698 94.9742 32.3576 95.3394C30.5681 95.5586 28.5959 95.7412 27.0985 94.7186C26.295 94.1708 25.7106 93.3306 25.1993 92.4907C22.022 87.5603 19.1368 82.4109 16.5438 77.1153C16.1055 76.2022 9.60468 80.0005 9.20294 81.4613C9.16642 81.6805 9.13005 81.8264 9.13005 82.009Z" fill="#E2ECED"/>
<g opacity="0.15">
<path opacity="0.15" d="M35.681 106.844C34.3297 103.593 33.7455 100.343 33.5263 96.8368C33.4898 96.1428 32.5766 96.07 32.4671 96.7639C31.8827 100.489 32.4672 104.251 33.782 107.757C34.2568 109.035 36.2288 108.085 35.681 106.844Z" fill="#272525"/>
<path opacity="0.15" d="M29.582 107.099C28.6324 103.776 28.9977 101.11 30.0933 97.8595C30.2394 97.4212 29.6185 97.1289 29.3628 97.4941C28.3768 99.1376 27.2812 100.416 26.9525 102.388C26.6603 104.251 26.7334 106.04 27.3908 107.793C27.829 109.071 29.9106 108.341 29.582 107.099Z" fill="#272525"/>
</g>
<path d="M63.0361 43.9542C63.0726 45.342 63.1454 46.7663 63.7298 48.0446C65.2271 51.2219 69.1715 52.2445 72.641 52.8289C92.4721 56.1523 112.742 57.2846 132.682 54.7646C135.312 54.4359 137.941 54.0342 140.352 52.9385C142.762 51.8429 144.917 49.9801 145.793 47.5332C146.341 45.9628 146.378 44.2829 146.414 42.6029C146.451 40.9229 146.451 39.2064 146.487 37.5264C146.487 36.7594 146.487 35.9925 146.195 35.2621C145.866 34.4951 145.209 33.8742 144.515 33.3994C141.886 31.6099 138.562 31.2081 135.385 30.8795C114.276 28.7612 92.9106 26.8986 71.9108 29.7473C71.0342 29.8569 70.1211 30.0029 69.5002 30.6238C69.1715 30.9159 68.9524 31.3178 68.6237 31.6099C68.0029 32.0847 67.163 32.0482 66.4325 32.3038C64.3873 32.9612 63.6569 35.4813 63.4012 37.636C63.109 39.7178 62.9996 41.8359 63.0361 43.9542Z" fill="#2F3F47"/>
<path opacity="0.2" d="M89.4775 47.022C90.1714 45.7437 90.2809 44.2464 90.1349 42.7856C90.0618 41.9091 89.8425 40.9961 89.2947 40.3387C88.126 38.9509 85.9714 39.097 84.1819 38.7683C82.6114 39.4257 81.2966 40.7038 80.6392 42.2742C80.2374 43.2238 80.0548 44.2464 80.1644 45.269C80.42 47.3507 82.1367 49.1404 84.1819 49.5056C86.2636 49.9439 88.4914 48.8846 89.4775 47.022Z" fill="#EAF1F2"/>
<path opacity="0.2" d="M124.246 47.022C124.94 45.7437 125.049 44.2464 124.903 42.7856C124.83 41.9091 124.611 40.9961 124.063 40.3387C122.894 38.9509 120.74 39.097 118.95 38.7683C117.38 39.4257 116.065 40.7038 115.408 42.2742C115.006 43.2238 114.823 44.2464 114.933 45.269C115.188 47.3507 116.905 49.1404 118.95 49.5056C120.995 49.9439 123.223 48.8846 124.246 47.022Z" fill="#EAF1F2"/>
<defs>
<linearGradient id="paint0_linear" x1="62.6406" y1="185.602" x2="219.097" y2="185.602" gradientUnits="userSpaceOnUse">
<stop stop-color="#4D4D4D"/>
<stop offset="1"/>
</linearGradient>
<linearGradient id="paint1_linear" x1="62.6406" y1="185.602" x2="219.097" y2="185.602" gradientUnits="userSpaceOnUse">
<stop/>
<stop offset="1"/>
</linearGradient>
</defs>
</svg>
