<svg width="335" height="193" viewBox="0 0 335 193" fill="none" xmlns="http://www.w3.org/2000/svg">
<path d="M0.882782 182.086H31.8528L31.8528 130.346H0.882782L0.882782 182.086Z" fill="#B2B2B2"/>
<path d="M31.7302 182.086H62.7002L62.7002 130.346H31.7302L31.7302 182.086Z" fill="#D1D1D1"/>
<path d="M34.5122 81.4202L38.2422 99.2802L26.5922 100.78C26.5922 100.78 25.5822 82.2202 26.5922 82.1202C27.6022 82.0302 34.5122 81.4202 34.5122 81.4202Z" fill="#A8754B"/>
<path d="M23.6123 63.4802C23.6123 63.4802 35.2523 65.1202 37.3423 82.8302C37.3423 82.8302 33.6323 86.8202 28.9023 85.5902L23.6123 63.4802Z" fill="#FFD686"/>
<path d="M18.5622 62.8702C18.5622 62.8702 7.2222 61.7502 3.2322 69.7402C-0.767797 77.7302 10.8922 86.0502 6.8922 104.36L32.0322 103.03V86.8802C32.0322 86.8802 36.6122 80.2002 30.1222 73.0402C30.1222 73.0402 29.7322 62.1602 18.5622 62.8702Z" fill="#FFD686"/>
<path d="M55.9622 106.95C55.9622 106.95 64.1122 103.93 66.3022 111.84C68.4922 119.74 77.5722 171.39 77.5722 171.39H70.2922L66.0122 150.86C66.0122 150.86 59.9722 144.13 58.1222 129.84L32.7222 126.81L55.9622 106.95Z" fill="#B5845B"/>
<path d="M39.3022 125.85C39.3022 125.85 43.6222 125.73 51.2922 123.29C58.9622 120.84 64.4322 123.43 61.4122 132.07C58.3922 140.7 43.1322 180.7 43.1322 180.7L37.3522 178.97L42.3422 153.07C42.3422 153.07 43.5122 140.22 48.9322 132.69C48.9322 132.69 37.5322 133.26 33.6322 132.66C29.7522 132.07 39.3022 125.85 39.3022 125.85Z" fill="#A8754B"/>
<path d="M6.89234 104.36C6.89234 104.36 -2.32766 115.95 8.76234 127.33C8.76234 127.33 14.4723 133.98 39.6423 132.94C39.6423 132.94 46.2423 110.66 60.2823 104.67L31.2223 100.78L6.89234 104.36Z" fill="#0C2C40"/>
<path d="M19.1822 33.2802C19.1822 33.2802 22.1822 21.0702 11.7922 21.0002C4.1022 20.9502 1.81219 30.1402 11.2422 36.2902L19.1822 33.2802Z" fill="#190D08"/>
<path d="M10.8923 38.5102C10.8923 38.5102 9.01231 33.7102 14.3723 31.2802C19.7323 28.8502 21.4423 34.6002 21.4423 34.6002L10.8923 38.5102Z" fill="#FD6C75"/>
<path d="M31.2522 49.4303C31.2522 49.4303 38.9922 44.8503 30.6222 35.6503C25.3922 29.9003 16.2322 30.2202 11.1322 35.9202C6.03222 41.6202 10.8422 51.6702 10.8422 51.6702L14.3122 45.9003L17.3522 41.4202L21.7022 39.6803L25.1122 39.9202L28.0022 40.2902L30.3322 41.2702L31.2522 49.4303Z" fill="#27160C"/>
<path d="M24.9302 53.131L16.2312 52.0137L14.4705 65.7217L23.1695 66.839L24.9302 53.131Z" fill="#B5845B"/>
<path d="M15.3223 56.0902C15.3223 56.0902 16.2623 61.0802 20.2723 62.0902C21.5223 62.4002 22.8823 62.0402 23.6423 61.0102C23.8523 60.7302 24.0023 60.4102 24.0523 60.0502C24.2423 58.6102 20.4423 56.0902 20.4423 56.0902H15.3223Z" fill="#A8754B"/>
<path d="M21.4523 59.6402L21.0023 59.5802C16.0123 58.9402 12.4823 54.3701 13.1223 49.3801L13.6323 45.4202C14.2723 40.4302 18.8423 36.9002 23.8323 37.5402L24.2823 37.6001C29.2723 38.2401 32.8023 42.8102 32.1623 47.8002L31.6523 51.7602C31.0123 56.7502 26.4423 60.2802 21.4523 59.6402Z" fill="#B5845B"/>
<path d="M14.1022 48.3902C14.1022 48.3902 20.3622 46.3502 20.2022 39.3202C20.2022 39.3202 20.6022 34.0802 15.1222 38.9302C9.64222 43.7802 14.1022 48.3902 14.1022 48.3902Z" fill="#27160C"/>
<path d="M15.4822 50.3102C15.2622 51.9902 13.7322 53.1802 12.0422 52.9602C10.3622 52.7402 9.17217 51.2102 9.39217 49.5302C9.61217 47.8502 11.1422 46.6602 12.8322 46.8802C14.5122 47.0902 15.7022 48.6302 15.4822 50.3102Z" fill="#B5845B"/>
<path d="M17.4922 44.8702L17.2122 47.0902C16.5722 50.2202 15.2522 49.2702 14.7722 47.9202L17.4922 44.8702Z" fill="#27160C"/>
<path d="M33.1222 43.7402C33.1222 43.7402 26.7322 48.5302 17.3622 41.4302C10.9022 36.5402 20.6722 34.7802 20.6722 34.7802L29.7822 36.6602L33.1222 43.7402Z" fill="#27160C"/>
<path d="M14.4822 65.7102C14.4822 65.7102 19.9522 75.4702 23.8322 72.4702C28.0222 69.2302 18.5622 62.8702 18.5622 62.8702L14.4822 65.7102Z" fill="#B5845B"/>
<path d="M16.9022 85.5902C16.9022 85.5902 20.2822 91.8202 22.5922 96.7102L47.2322 95.2902C47.2322 95.2902 52.1222 91.2902 55.9522 94.6702L52.1722 99.2102L21.3222 106.04C20.1422 106.3 18.9122 105.96 18.0422 105.14C15.3122 102.56 9.37219 96.5502 6.49219 90.4202L16.9022 85.5902Z" fill="#B5845B"/>
<path d="M85.2921 75.9802H55.0121C54.0121 75.9802 53.1521 76.6802 52.9521 77.6502L47.2521 104.4C46.9721 105.71 47.9721 106.95 49.3121 106.95H80.1021C81.1121 106.95 81.9821 106.23 82.1721 105.24L87.3721 78.4902C87.6121 77.1902 86.6121 75.9802 85.2921 75.9802Z" fill="#B2B2B2"/>
<path d="M87.0321 75.9802H56.7521C55.7521 75.9802 54.8921 76.6802 54.6921 77.6502L48.9921 104.4C48.7121 105.71 49.7121 106.95 51.0521 106.95H81.8421C82.8521 106.95 83.7221 106.23 83.9121 105.24L89.1121 78.4902C89.3521 77.1902 88.3621 75.9802 87.0321 75.9802Z" fill="#D1D1D1"/>
<path d="M48.0522 104.67H27.3622C26.7322 104.67 26.2222 105.18 26.2222 105.81C26.2222 106.44 26.7322 106.95 27.3622 106.95H48.4522L48.0522 104.67Z" fill="#B2B2B2"/>
<path d="M68.2822 90.7702C68.2822 92.5902 69.7622 94.0702 71.5822 94.0702C73.4022 94.0702 74.8822 92.5902 74.8822 90.7702C74.8822 88.9502 73.4022 87.4702 71.5822 87.4702C69.7622 87.4702 68.2822 88.9402 68.2822 90.7702Z" fill="white"/>
<path d="M6.49224 65.8502C6.08224 66.0302 -7.48776 72.7002 5.86224 93.3702C5.86224 93.3702 14.3922 93.5102 19.3322 87.1602C19.3422 87.1602 17.7022 60.9302 6.49224 65.8502Z" fill="#FFD686"/>
<path d="M35.7822 177.84C35.9622 177.3 36.5522 177.1 36.9522 177.45C37.7322 178.14 39.1322 178.99 41.1922 178.78C43.3422 178.57 44.1422 177.3 44.4522 176.39C44.6122 175.91 45.0722 175.67 45.4822 175.87L58.5022 182.41C59.2922 182.81 59.9122 183.55 60.2122 184.47C60.5022 185.34 59.9222 186.27 59.1022 186.25L36.6122 185.63C35.7222 185.61 35.0522 184.74 35.1222 183.73L35.4922 178.77C35.5022 178.69 35.5122 178.61 35.5422 178.53L35.7822 177.84Z" fill="#FD6C75"/>
<path d="M68.6123 169.28C68.6523 168.71 69.1623 168.36 69.6323 168.6C70.5623 169.06 72.1323 169.51 74.0723 168.77C76.0823 168 76.5323 166.57 76.5923 165.61C76.6223 165.11 77.0023 164.75 77.4523 164.84L91.7323 167.75C92.6023 167.93 93.3923 168.48 93.9323 169.29C94.4423 170.05 94.1223 171.1 93.3323 171.29L71.4623 176.58C70.6023 176.79 69.7223 176.13 69.5323 175.13L68.5923 170.25C68.5723 170.17 68.5723 170.09 68.5723 170L68.6123 169.28Z" fill="#FD6C75"/>
<path d="M162.259 4.68433C162.259 4.68433 159.468 4.90434 159.228 8.76434C158.988 12.6243 158.968 23.8243 164.208 24.5143C169.448 25.2043 165.678 6.11435 165.678 6.11435L162.259 4.68433Z" fill="#1C2226"/>
<path d="M180.459 8.14429C180.459 8.14429 182.579 14.0543 178.349 15.1343C174.109 16.2143 174.899 7.64429 174.899 7.64429L180.459 8.14429Z" fill="#1C2226"/>
<path d="M156.358 45.2643L143.248 63.7443L143.978 62.0143L137.928 89.1343L131.188 87.8743L135.358 60.4043C135.448 59.8043 135.678 59.2644 135.998 58.8044L136.088 58.6743L149.198 40.1943L156.358 45.2643Z" fill="#FCC9A7"/>
<path d="M132.909 97.4543C129.459 96.4243 127.509 92.7843 128.539 89.3443C129.569 85.8943 133.209 83.9443 136.649 84.9743C140.099 86.0043 142.049 89.6443 141.019 93.0843C139.989 96.5243 136.359 98.4843 132.909 97.4543Z" fill="#FCC9A7"/>
<path d="M184.739 44.6343L193.029 69.9743L188.579 66.9543L215.579 66.2243L216.009 73.0743L189.129 75.7243C187.129 75.9243 185.329 74.6843 184.729 72.8543L184.679 72.7043L176.389 47.3643L184.739 44.6343Z" fill="#FCC9A7"/>
<path d="M183.269 174.244L187.329 185.434L193.269 180.094L189.479 171.124L183.269 174.244Z" fill="#FCC9A7"/>
<path d="M184.979 182.844C184.979 182.294 185.449 181.934 185.919 182.134C186.839 182.524 188.369 182.864 190.179 182.054C192.069 181.204 192.419 179.814 192.419 178.894C192.419 178.414 192.758 178.054 193.198 178.114L207.029 180.104C207.869 180.224 208.659 180.714 209.219 181.464C209.749 182.164 209.499 183.194 208.759 183.414L188.109 189.694C187.299 189.944 186.419 189.354 186.179 188.414L185.009 183.794C184.989 183.714 184.979 183.634 184.979 183.564V182.844Z" fill="#1F252A"/>
<path d="M129.269 166.644L124.769 175.454L130.009 179.934L135.669 169.364L129.269 166.644Z" fill="#FCC9A7"/>
<path d="M123.829 173.514C124.249 173.164 124.829 173.284 124.979 173.774C125.279 174.734 125.999 176.114 127.799 176.974C129.669 177.864 130.959 177.224 131.659 176.634C132.029 176.324 132.529 176.354 132.759 176.724L140.199 188.554C140.649 189.274 140.789 190.184 140.579 191.094C140.389 191.954 139.449 192.424 138.789 192.004L120.629 180.324C119.919 179.864 119.789 178.814 120.349 178.024L123.119 174.144C123.169 174.084 123.219 174.024 123.279 173.974L123.829 173.514Z" fill="#1F252A"/>
<path d="M178.679 84.0043L160.919 133.274L135.779 174.934L124.569 169.394L146.919 127.864L159.179 86.3243L178.679 84.0043Z" fill="#092330"/>
<path d="M151.239 84.7343C151.239 84.7343 147.879 91.0843 153.099 101.234L169.309 132.164L181.659 179.044L193.929 174.764L182.189 127.354L169.499 90.3643L178.689 84.0143L151.239 84.7343Z" fill="#0C2C40"/>
<path d="M166.529 29.9943L152.699 32.8343C151.069 33.1643 149.629 34.1043 148.659 35.4543L139.859 47.7143L151.619 55.4043L147.379 88.9743C147.379 88.9743 152.169 103.634 181.389 91.9443C181.389 91.9443 178.869 64.1243 180.559 46.0043L179.699 34.0743L166.529 29.9943Z" fill="#DF945B"/>
<path d="M179.708 34.0643L182.009 34.9043C183.909 35.5943 185.388 37.1244 186.018 39.0544L190.809 53.6643L176.729 56.2643L179.708 34.0643Z" fill="#DF945B"/>
<path d="M224.559 67.6943C224.559 71.2943 221.639 74.2143 218.039 74.2143C214.439 74.2143 211.529 71.2943 211.529 67.6943C211.529 64.0943 214.449 61.1843 218.039 61.1843C221.639 61.1843 224.559 64.0943 224.559 67.6943Z" fill="#FCC9A7"/>
<path d="M170.439 34.2243L168.869 35.0943C165.819 34.8443 162.949 34.1943 163.199 31.1443L163.929 22.2043L174.979 23.1143L174.249 32.0544C173.999 35.1044 173.489 34.4743 170.439 34.2243Z" fill="#FCC9A7"/>
<path d="M163.779 23.2843C163.779 23.2843 165.299 29.9043 170.859 29.6743C175.719 29.4643 175.259 22.2043 175.259 22.2043L163.779 23.2843Z" fill="#F4BE9A"/>
<path d="M169.909 27.3243L168.969 27.2243C164.269 26.7143 160.869 22.4943 161.369 17.7843L161.949 12.4243C162.459 7.7243 166.679 4.3243 171.389 4.8243L172.329 4.9243C177.029 5.4343 180.429 9.65431 179.929 14.3643L179.349 19.7243C178.839 24.4243 174.619 27.8243 169.909 27.3243Z" fill="#FCC9A7"/>
<path d="M152.429 53.0643L155.989 48.8643" stroke="#CE804A" stroke-width="0.7693" stroke-miterlimit="10" stroke-linecap="round" stroke-linejoin="round"/>
<path d="M180.029 55.6543L180.569 46.9843" stroke="#CE804A" stroke-width="0.7693" stroke-miterlimit="10" stroke-linecap="round" stroke-linejoin="round"/>
<path d="M170.439 34.2243L163.419 29.9843C160.419 28.7343 158.509 31.6343 158.509 31.6343L166.869 39.8343L170.439 34.2243Z" fill="#EDA472"/>
<path d="M170.439 34.2243L173.839 39.4843L177.239 33.2943C177.239 33.2943 175.899 31.1843 174.069 31.6743L170.439 34.2243Z" fill="#EDA472"/>
<path d="M188.759 67.9643H231.249C231.959 67.9643 232.529 67.3943 232.529 66.6843C232.529 65.9743 231.959 65.4043 231.249 65.4043H188.759C188.049 65.4043 187.479 65.9743 187.479 66.6843C187.479 67.3843 188.049 67.9643 188.759 67.9643Z" fill="#D1D1D1"/>
<path d="M232.529 66.3543L237.609 41.6743C237.739 41.0643 237.269 40.4843 236.639 40.4843H210.789C210.319 40.4843 209.909 40.8143 209.819 41.2843L204.809 66.3643H232.529V66.3543Z" fill="#D1D1D1"/>
<path d="M234.739 42.3643L229.999 64.7543H206.559L211.299 42.3643H234.739Z" fill="#EFEFEF"/>
<path d="M162.509 16.5043H165.379L165.939 13.3543C165.939 13.3543 168.939 11.7443 168.359 8.6343C168.359 8.6343 180.989 13.1643 182.959 8.12429C185.559 1.47429 176.129 -0.175694 168.359 0.0143065C160.589 0.194306 161.149 10.1143 161.149 10.1143L162.509 16.5043Z" fill="#1C2226"/>
<path d="M164.189 15.8743C164.009 17.5543 162.499 18.7643 160.819 18.5843C159.139 18.4043 157.929 16.8943 158.109 15.2143C158.289 13.5343 159.799 12.3243 161.479 12.5043C163.159 12.6843 164.369 14.1943 164.189 15.8743Z" fill="#FCC9A7"/>
<path d="M327.052 137.018H296.322V185.778H327.052V137.018Z" fill="#B2B2B2"/>
<path d="M296.442 137.018H265.712V185.778H296.442V137.018Z" fill="#D1D1D1"/>
<path d="M280.342 77.8882L279.032 104.098L272.872 123.318H283.962L289.722 106.758L291.522 87.9382L280.342 77.8882Z" fill="#F7EBE7"/>
<path d="M280.032 169.498L282.262 179.888L274.772 180.778L272.642 170.548L280.032 169.498Z" fill="#FCC9A7"/>
<path d="M282.712 178.948C282.522 178.388 281.922 178.188 281.512 178.548C280.712 179.258 279.272 180.128 277.142 179.918C274.932 179.698 274.102 178.398 273.782 177.458C273.612 176.968 273.142 176.718 272.722 176.928L259.312 183.668C258.502 184.078 257.862 184.838 257.542 185.788C257.242 186.678 257.842 187.638 258.682 187.618L281.852 186.978C282.762 186.958 283.462 186.058 283.382 185.018L283.002 179.918C282.992 179.838 282.982 179.748 282.952 179.668L282.712 178.948Z" fill="#1F252A"/>
<path d="M279.902 119.258H262.512C262.512 119.258 251.922 118.668 251.292 127.358C250.662 136.048 266.822 160.908 269.352 174.188L283.892 172.988L273.422 136.878L299.462 137.028C301.392 137.038 303.312 136.758 305.132 136.128C310.202 134.368 317.942 131.848 313.722 117.888L279.902 119.258Z" fill="#092330"/>
<path d="M293.322 169.538L296.862 181.958L289.372 182.848L285.932 170.588L293.322 169.538Z" fill="#FCC9A7"/>
<path d="M297.312 181.018C297.122 180.458 296.522 180.258 296.112 180.618C295.312 181.328 293.872 182.198 291.742 181.988C289.532 181.768 288.702 180.468 288.382 179.528C288.212 179.038 287.742 178.788 287.322 178.998L273.912 185.738C273.102 186.148 272.462 186.908 272.142 187.858C271.842 188.748 272.442 189.708 273.282 189.688L296.852 189.048C297.762 189.028 298.462 188.128 298.382 187.088L297.592 181.988C297.582 181.908 297.572 181.818 297.542 181.738L297.312 181.018Z" fill="#1F252A"/>
<path d="M300.682 67.5882C301.072 67.9682 318.522 72.4182 318.522 72.4182L314.792 82.3282L295.712 80.8882L300.682 67.5882Z" fill="#F7EBE7"/>
<path d="M293.482 69.9782C293.482 69.9782 282.112 74.1282 280.342 77.8882C280.952 83.1982 282.822 88.3082 285.902 92.6782C289.682 98.0382 294.352 107.248 293.492 119.258H326.362C326.362 119.258 324.592 85.4682 314.862 72.4982L293.482 69.9782Z" fill="#F7EBE7"/>
<path d="M297.212 75.3382C300.442 74.6782 302.522 71.5282 301.862 68.2982L299.932 58.8482L288.242 61.2382L290.172 70.6882C290.832 73.9182 293.982 75.9982 297.212 75.3382Z" fill="#FCC9A7"/>
<path d="M300.732 62.1482C300.732 62.1482 299.502 69.8082 293.542 70.2682C288.322 70.6682 288.822 63.1182 288.822 63.1182L300.732 62.1482Z" fill="#F4BE9A"/>
<path d="M294.012 66.0682L295.042 65.8282C300.212 64.6282 303.432 59.4682 302.232 54.3082L300.872 48.4182C299.672 43.2482 294.512 40.0282 289.352 41.2282L288.322 41.4682C283.152 42.6682 279.932 47.8282 281.132 52.9882L282.492 58.8782C283.692 64.0482 288.852 67.2682 294.012 66.0682Z" fill="#FCC9A7"/>
<path d="M298.992 56.7582C298.752 57.1682 298.522 57.7882 298.442 58.7282C298.352 59.9182 297.752 61.0482 296.752 61.7082C293.882 63.6082 291.692 58.7982 287.452 59.6482C287.452 59.6482 285.792 59.8982 285.462 61.7482C285.132 63.5882 282.822 60.3682 282.312 58.1682C281.802 55.9682 281.542 69.0582 291.982 67.9482C291.982 67.9482 297.252 67.7782 300.802 62.4082C301.192 61.8182 301.422 61.1282 301.442 60.4182C301.472 59.3682 301.322 57.7782 300.322 56.6382C299.972 56.2182 299.272 56.2782 298.992 56.7582Z" fill="#1C2226"/>
<path d="M299.002 53.7882C299.002 53.7882 294.492 52.2982 295.252 45.7082C295.252 45.7082 284.052 56.3082 275.752 48.5282C275.752 48.5282 279.462 47.5382 280.992 44.9982C283.782 40.3682 291.802 33.9882 298.222 41.3682C298.222 41.3682 306.032 40.1582 303.792 52.1882L299.002 53.7882Z" fill="#1C2226"/>
<path d="M299.002 53.7882C299.432 55.6282 301.272 56.7782 303.112 56.3582C304.962 55.9282 306.102 54.0882 305.682 52.2482C305.252 50.4082 303.412 49.2582 301.572 49.6782C299.722 50.1082 298.572 51.9482 299.002 53.7882Z" fill="#FCC9A7"/>
<path d="M293.302 74.9682L298.132 75.0582L294.752 82.0582L291.102 75.3482L293.302 74.9682Z" fill="#0C2C40"/>
<path d="M302.272 67.8982L296.052 75.1582L300.102 79.8082L307.552 69.5682C307.552 69.5682 305.642 66.4982 302.272 67.8982Z" fill="#FFF7F3"/>
<path d="M293.302 74.9682L289.722 79.0082L287.202 72.7082C287.202 72.7082 287.862 69.8782 289.922 70.4182L293.302 74.9682Z" fill="#FFF7F3"/>
<path d="M294.622 79.7982C294.622 79.7982 289.952 91.9782 291.112 109.258L295.712 113.458L301.082 108.288L295.292 79.0082L294.622 79.7982Z" fill="#0C2C40"/>
<path d="M303.352 108.718L293.352 112.008L292.692 117.878L305.952 113.918L303.352 108.718Z" fill="#FCC9A7"/>
<path d="M294.842 115.888C294.842 119.318 292.062 122.108 288.622 122.108C285.192 122.108 282.402 119.328 282.402 115.888C282.402 112.458 285.182 109.668 288.622 109.668C292.052 109.668 294.842 112.448 294.842 115.888Z" fill="#FCC9A7"/>
<path d="M293.482 119.258H276.102C276.102 119.258 265.512 118.668 264.882 127.358C264.252 136.048 281.602 162.508 284.132 175.778L298.672 174.578L287.012 136.868L313.052 137.018C314.982 137.028 316.902 136.748 318.722 136.118C323.792 134.358 331.532 131.838 327.312 117.878L293.482 119.258Z" fill="#0C2C40"/>
<path d="M241.052 88.5282H271.102C272.092 88.5282 272.942 89.2182 273.152 90.1882L278.812 116.728C279.092 118.028 278.092 119.258 276.762 119.258H246.212C245.212 119.258 244.352 118.548 244.162 117.568L239.002 91.0282C238.742 89.7282 239.732 88.5282 241.052 88.5282Z" fill="#B2B2B2"/>
<path d="M239.322 88.5282H269.362C270.352 88.5282 271.202 89.2182 271.412 90.1882L277.072 116.728C277.352 118.028 276.362 119.258 275.022 119.258H244.482C243.482 119.258 242.622 118.548 242.432 117.568L237.272 91.0282C237.012 89.7282 238.002 88.5282 239.322 88.5282Z" fill="#D1D1D1"/>
<path d="M277.992 116.988H298.522C299.152 116.988 299.652 117.498 299.652 118.118C299.652 118.748 299.142 119.248 298.522 119.248H277.592L277.992 116.988Z" fill="#B2B2B2"/>
<path d="M257.922 103.198C257.922 105.008 256.462 106.468 254.652 106.468C252.842 106.468 251.382 104.998 251.382 103.198C251.382 101.388 252.852 99.9282 254.652 99.9282C256.462 99.9282 257.922 101.388 257.922 103.198Z" fill="white"/>
<path d="M311.352 81.8582L322.332 99.5882L296.052 108.968L299.652 116.748C299.652 116.748 322.122 114.228 332.982 105.858C333.982 105.088 334.482 103.838 334.312 102.588C333.802 98.5882 331.622 88.8782 322.332 75.0782C320.442 72.2682 316.682 71.4182 313.752 73.1182C310.702 74.8782 309.632 78.7782 311.352 81.8582Z" fill="#F7EBE7"/>
<path d="M303.042 106.468L322.332 99.5882L312.682 83.9982" stroke="#EADDD8" stroke-width="0.7599" stroke-miterlimit="10" stroke-linecap="round" stroke-linejoin="round"/>
<path d="M289.982 100.598L285.232 88.0582" stroke="#EADDD8" stroke-width="0.7599" stroke-miterlimit="10" stroke-linecap="round" stroke-linejoin="round"/>
<path d="M303.352 116.218C303.352 116.218 318.112 114.368 325.552 110.108" stroke="#EADDD8" stroke-width="0.7599" stroke-miterlimit="10" stroke-linecap="round" stroke-linejoin="round"/>
</svg>
